<?xml version="1.0" standalone="no"?>
<!DOCTYPE svg PUBLIC "-//W3C//DTD SVG 1.1//EN" "http://www.w3.org/Graphics/SVG/1.1/DTD/svg11.dtd" >
<svg xmlns="http://www.w3.org/2000/svg">
<metadata>Generated by IcoMoon</metadata>
<defs>
<font id="icomoon" horiz-adv-x="1024">
<font-face units-per-em="1024" ascent="960" descent="-64" />
<missing-glyph horiz-adv-x="1024" />
<glyph unicode="&#x20;" horiz-adv-x="512" d="" />
<glyph unicode="&#xe900;" glyph-name="xiajiantouyuanjiao" d="M892.418 725.881c30.197 31.061 78.883 31.061 108.94 0 30.188-31.047 30.188-81.213 0-112.184l-434.824-443.586c-30.186-31.050-78.883-31.050-108.933 0l-434.963 443.586c-30.185 31.047-30.185 81.213 0 112.184 30.186 30.982 78.809 31.061 108.933 0l380.429-363.662 380.418 363.662z" />
<glyph unicode="&#xe901;" d="M1024 448c0-282.77-229.23-512-512-512s-512 229.23-512 512c0 282.77 229.23 512 512 512s512-229.23 512-512z" />
<glyph unicode="&#xe902;" d="M344.768 611.84c-8.073 0-16.101-3.284-21.756-8.985-5.658-5.697-8.986-13.637-8.986-21.756 0-8.028 3.279-16.056 8.986-21.757 5.7-5.609 13.683-8.942 21.756-8.942 8.028 0 16.059 3.334 21.711 8.985 5.7 5.704 8.988 13.729 8.988 21.714 0 8.119-3.288 16.055-8.988 21.756-5.651 5.7-13.683 8.985-21.711 8.985zM501.783 550.4c8.028 0 16.055 3.33 21.759 8.985 5.654 5.701 8.939 13.729 8.939 21.757 0 8.119-3.284 16.061-8.939 21.758-5.749 5.658-13.776 8.94-21.759 8.94-8.073 0-16.055-3.281-21.758-8.985-5.7-5.697-8.984-13.638-8.984-21.757 0-8.029 3.284-16.057 8.984-21.758 5.703-5.609 13.685-8.94 21.758-8.94zM418.848 331.308c-26.707 0-48.25 5.446-75.005 10.677l-74.817-37.345 21.411 64.097c-53.59 37.301-85.637 85.319-85.637 143.795 0 101.446 96.408 181.227 214.092 181.227 105.277 0 197.492-63.743 215.988-149.637-6.799 0.791-13.683 1.273-20.616 1.273-101.701 0-185.673-75.567-185.673-168.616 0-15.553 3.842-30.403 7.992-44.679z" />
<glyph unicode="&#xe903;" d="M743.227 254.974l16.321-52.734-59.47 31.743c-21.689-5.312-43.509-10.622-65.106-10.622-103.165 0-184.413 68.668-184.413 153.276 0 84.434 81.248 153.283 184.413 153.283 97.477 0 184.227-68.805 184.227-153.283 0.003-47.681-32.416-89.833-75.973-121.663zM586.396 433.544c-5.077 0-10.117-2.086-13.719-5.636-3.607-3.545-5.705-8.557-5.705-13.639 0-5.086 2.097-10.058 5.668-13.645 3.565-3.585 8.678-5.631 13.755-5.631s10.112 2.083 13.719 5.631c3.601 3.55 5.662 8.559 5.662 13.645 0 5.082-2.095 10.057-5.662 13.639-3.57 3.587-8.681 5.636-13.719 5.636zM702.79 433.544c-5.081 0-10.126-2.086-13.735-5.636-3.61-3.545-5.67-8.557-5.67-13.639 0-5.086 2.099-10.058 5.67-13.645 3.571-3.585 8.653-5.631 13.735-5.631s10.122 2.083 13.732 5.631c3.608 3.55 5.668 8.559 5.668 13.645 0 5.082-2.097 10.057-5.668 13.639-3.571 3.587-8.653 5.636-13.732 5.636z" />
<glyph unicode="&#xe904;" d="M1024 448c0-282.77-229.23-512-512-512s-512 229.23-512 512c0 282.77 229.23 512 512 512s512-229.23 512-512z" />
<glyph unicode="&#xe905;" d="M808.161 635.71c-22.186-9.838-46.059-16.495-71.082-19.484 25.575 15.317 45.197 39.558 54.416 68.46-23.932-14.181-50.389-24.472-78.632-30.005-22.525 24.051-54.726 39.079-90.349 39.079-68.322 0-123.744-55.436-123.744-123.777 0-9.718 1.056-19.142 3.186-28.185-102.874 5.173-194.057 54.398-255.152 129.344-10.652-18.347-16.757-39.599-16.757-62.289 0-42.898 21.856-80.801 55.076-103.025-20.286 0.624-39.39 6.243-56.093 15.462v-1.524c0-60.003 42.66-110.030 99.326-121.373-10.396-2.91-21.318-4.362-32.634-4.362-7.806-0.007-15.6 0.728-23.276 2.194 15.739-49.152 61.443-84.973 115.617-85.92-42.359-33.218-95.744-53.005-153.73-53.005-9.994 0-19.864 0.552-29.532 1.716 54.779-35.092 119.856-55.594 189.747-55.594 227.724 0 352.198 188.59 352.198 352.19 0 5.377-0.113 10.738-0.335 16.015 24.241 17.512 45.15 39.217 61.751 64.084z" />
<glyph unicode="&#xe906;" glyph-name="shaixuan" d="M101.375 346.056c18.872 0 34.171-15.299 34.171-34.171v-341.713c0-18.872-15.299-34.171-34.171-34.171s-34.171 15.299-34.171 34.171v341.713c0 18.872 15.299 34.171 34.171 34.171zM374.745 619.426c18.872 0 34.171-15.299 34.171-34.171v-615.083c0-18.872-15.299-34.171-34.171-34.171s-34.171 15.299-34.171 34.171v615.083c0 18.872 15.299 34.171 34.171 34.171zM648.116 346.056c18.872 0 34.171-15.299 34.171-34.171v-341.713c0-18.872-15.299-34.171-34.171-34.171s-34.171 15.299-34.171 34.171v341.713c0 18.872 15.299 34.171 34.171 34.171zM921.486 585.255c18.872 0 34.171-15.299 34.171-34.171v-580.912c0-18.872-15.299-34.171-34.171-34.171s-34.171 15.299-34.171 34.171v580.912c0 18.872 15.299 34.171 34.171 34.171z" />
<glyph unicode="&#xe907;" glyph-name="Oval" d="M438.573 887.119c204.667 0 365.479-160.343 365.479-364.412 0-204.071-160.812-364.412-365.479-364.412s-365.479 160.341-365.479 364.412c0 204.069 160.812 364.412 365.479 364.412zM767.506 245.75c73.096 72.887 109.639 167.632 109.639 276.957 0 240.513-197.356 437.293-438.573 437.293s-438.573-196.78-438.573-437.293c0-240.513 197.356-437.294 438.573-437.294 109.645 0 204.667 36.438 285.073 102.035l241.217-240.513c14.616-14.579 36.549-14.579 51.166 0 14.623 14.574 7.312 43.728-7.311 58.307l-241.212 240.508z" />
<glyph unicode="&#xe908;" glyph-name="news" d="M877.429 675.555h-56.216v170.67c-0.059 62.816-50.372 113.72-112.448 113.775h-562.195c-62.072-0.060-112.378-50.964-112.438-113.775v-796.449c0.059-62.811 50.365-113.715 112.438-113.775h730.858c62.071 0.060 112.378 50.964 112.438 113.775v512c-0.059 62.815-50.366 113.715-112.438 113.779zM90.349 49.775v796.449c0.040 31.405 25.186 56.85 56.222 56.891h562.195c31.036-0.041 56.186-25.486 56.226-56.891v-853.33h-618.421c-31.032 0.040-56.176 25.48-56.222 56.881zM933.645 49.775c-0.039-31.405-25.19-56.85-56.226-56.891h-56.205v625.786h56.226c31.036-0.040 56.186-25.49 56.226-56.895l-0.020-512zM226.379 631.784c3.644-0.005 7.136 1.478 9.714 4.116 2.577 2.634 4.020 6.211 4.020 9.942v88.497l62.729-96.3c2.55-3.909 6.84-6.256 11.431-6.256 1.337 0 2.669 0.207 3.953 0.607 5.794 1.789 9.757 7.255 9.757 13.451v134.933c0 7.763-6.146 14.054-13.729 14.054-7.584 0-13.735-6.291-13.735-14.054v-88.513l-62.714 96.305c-3.355 5.145-9.606 7.437-15.395 5.643-5.787-1.794-9.747-7.249-9.756-13.436v-134.933c0-3.731 1.443-7.303 4.016-9.942 2.573-2.634 6.068-4.116 9.708-4.116zM391.161 631.784h87.884c7.584 0 13.73 6.295 13.73 14.058s-6.146 14.054-13.73 14.054h-74.15v39.349h74.15c4.905 0 9.438 2.678 11.89 7.027s2.453 9.709 0 14.058c-2.452 4.348-6.985 7.027-11.89 7.027h-74.15v39.369h74.15c7.584 0 13.73 6.295 13.73 14.058s-6.146 14.053-13.73 14.053h-87.884c-3.644 0.005-7.139-1.478-9.712-4.111-2.578-2.639-4.021-6.216-4.021-9.942v-134.943c0-3.731 1.443-7.308 4.021-9.942 2.573-2.639 6.068-4.121 9.712-4.116zM551.858 631.834c6.267-0.529 12.112 3.276 14.3 9.309l33.71 97.511 33.745-97.511c1.95-5.608 7.134-9.354 12.952-9.359 0.425 0 0.889 0 1.342 0.049 6.29 0.638 11.35 5.574 12.262 11.973l19.228 134.933c1.085 7.684-4.109 14.82-11.616 15.951-7.487 1.028-14.405-4.254-15.583-11.894l-11.21-78.733-28.159 81.396c-3.953 11.203-21.989 11.203-25.904 0l-28.134-81.367-11.215 78.704c-1.216 7.614-8.105 12.873-15.578 11.894-7.506-1.131-12.701-8.267-11.619-15.951l19.232-134.933c0.912-6.395 5.962-11.336 12.247-11.973zM665.792 471.541h-439.413c-15.167 0-27.464-12.586-27.464-28.113 0-15.526 12.297-28.116 27.464-28.116h439.413c15.167 0 27.468 12.591 27.468 28.116 0 15.527-12.3 28.113-27.468 28.113zM665.792 330.98h-439.413c-15.167 0-27.464-12.586-27.464-28.113 0-15.526 12.297-28.113 27.464-28.113h439.413c9.814 0 18.88 5.357 23.785 14.054 4.909 8.702 4.909 19.414 0 28.116-4.905 8.697-13.971 14.054-23.785 14.054zM665.792 190.423h-439.413c-15.167 0-27.464-12.591-27.464-28.116 0-15.527 12.297-28.113 27.464-28.113h439.413c9.814 0 18.88 5.356 23.785 14.058 4.909 8.697 4.909 19.416 0 28.113-4.905 8.697-13.971 14.058-23.785 14.058z" />
<glyph unicode="&#xe909;" d="M1024 448c0-282.77-229.23-512-512-512s-512 229.23-512 512c0 282.77 229.23 512 512 512s512-229.23 512-512z" />
<glyph unicode="&#xe90a;" d="M266.24 202.24h102.4v307.2h-102.4v-307.2zM327.254 529.92h-0.975c-48.849 0-80.519 36.103-80.519 81.836 0 46.643 32.623 82.004 82.445 82.004 49.78 0 80.412-35.269 81.395-81.87 0-45.759-31.61-81.97-82.346-81.97zM778.24 202.24h-109.591v157.455c0 41.214-17.125 69.333-54.832 69.333-28.836 0-44.854-18.971-52.323-37.277-2.792-6.555-2.364-15.698-2.364-24.871v-164.64h-108.569c0 0 1.412 278.911 0 304.268h108.569v-47.749c6.414 20.881 41.093 50.681 96.483 50.681 68.665 0 122.627-43.78 122.627-138.006v-169.194z" />
<glyph unicode="&#xe90b;" glyph-name="jiantouyou" d="M234.119 828.418c-31.060 30.197-31.060 78.883 0 108.94 31.047 30.188 81.213 30.188 112.184 0l443.587-434.824c31.049-30.186 31.049-78.883 0-108.933l-443.587-434.963c-31.046-30.185-81.213-30.185-112.184 0-30.981 30.186-31.060 78.809 0 108.933l363.663 380.429-363.663 380.418z" />
<glyph unicode="&#xe90c;" glyph-name="jiantouxiangsahng" d="M895.24 181.036l-383.063 383.064-388.13-388.026c-13.137-12.709-31.025-20.531-50.731-20.531-40.377 0-73.111 32.737-73.111 73.115 0 19.706 7.819 37.591 20.529 50.73l-0.036 0.035 438.716 438.65c13.281 13.78 31.916 22.384 52.587 22.384 0.072 0 0.106 0 0.178 0s0.108 0 0.144 0c20.67 0 39.341-8.604 52.624-22.384l0.034 0.036 438.505-438.863c12.565-13.14 20.314-30.951 20.314-50.588 0-40.379-32.737-73.115-73.114-73.115-22.17 0.003-42.019 9.891-55.444 25.493z" />
<glyph unicode="&#xe90d;" glyph-name="jiantouxaingxia" d="M128.759 714.966l383.064-383.064 388.13 388.026c13.138 12.709 31.025 20.529 50.73 20.529 40.378 0 73.114-32.737 73.114-73.115 0-19.706-7.82-37.591-20.531-50.73l0.036-0.035-438.717-438.649c-13.28-13.781-31.916-22.384-52.586-22.384-0.072 0-0.107 0-0.178 0-0.073 0-0.108 0-0.146 0-20.67 0-39.341 8.602-52.621 22.384l-0.036-0.036-438.503 438.862c-12.565 13.139-20.314 30.952-20.314 50.587 0 40.379 32.737 73.115 73.114 73.115 22.169 0 42.018-9.888 55.443-25.49z" />
<glyph unicode="&#xe90e;" glyph-name="gupiao" d="M321.726-64c-23.247 0-42.266 19.108-42.266 42.464v169.865c0 23.356 19.019 42.464 42.266 42.464s42.272-19.108 42.272-42.464v-169.865c0-23.356-19.024-42.464-42.272-42.464zM530.95-64c-23.248 0-42.266 19.108-42.266 42.464v254.793c0 23.358 19.017 42.465 42.266 42.465 23.247 0 42.266-19.108 42.266-42.465v-254.793c0-23.356-19.019-42.464-42.266-42.464zM740.174-64c-23.248 0-42.267 19.108-42.267 42.464v382.192c0 23.358 19.019 42.465 42.267 42.465 23.247 0 42.266-19.108 42.266-42.465v-382.192c0-23.356-19.019-42.464-42.266-42.464zM913.468-64c-23.248 0-42.267 19.108-42.267 42.464v615.751c0 23.356 19.019 42.47 42.267 42.47 23.247 0 42.266-19.113 42.266-42.47v-615.751c0-23.356-19.019-42.464-42.266-42.464zM106.167 318.192c-19.019 0-29.59 0-33.813 2.121-23.248 2.123-40.154 23.358-38.043 46.714 2.111 23.352 23.247 40.339 46.495 38.216 16.906-2.121 431.125-33.972 741.787 467.123 12.677 19.112 38.043 25.478 59.173 12.741 19.019-12.741 25.36-38.22 12.683-59.451-289.533-469.248-672.050-507.464-788.283-507.464zM950.206 755.2c-16.488 0-32.974 9.748-39.158 27.285l-32.974 91.591-107.171-35.075c-20.606-7.795-45.337 3.895-51.521 23.385-8.243 19.484 4.12 42.869 24.731 48.717l146.324 46.77c10.308 3.899 22.67 1.952 30.915-1.948 10.308-3.894 16.486-13.642 20.611-23.384l45.342-128.62c8.243-19.49-4.125-42.875-26.795-48.722h-10.304z" />
<glyph unicode="&#xe90f;" glyph-name="gonggao" d="M829.752 149.571c-6.872 0-13.562 3.485-17.278 9.743-5.578 9.373-2.367 21.411 7.172 26.89 45.751 26.304 84.111 63.976 110.92 108.933 27.606 46.29 42.191 99.305 42.191 153.293 0 53.531-14.354 106.143-41.516 152.155-26.379 44.67-64.168 82.27-109.295 108.732-9.482 5.556-12.59 17.626-6.934 26.955 5.656 9.325 17.93 12.38 27.413 6.819 50.948-29.881 93.62-72.332 123.398-122.764 30.697-52.005 46.923-111.44 46.923-171.897 0-60.975-16.486-120.867-47.686-173.181-30.271-50.764-73.578-93.291-125.234-122.987-3.175-1.828-6.647-2.692-10.075-2.692zM724.223 276.961c-6.873 0-13.557 3.485-17.278 9.739-5.579 9.373-2.367 21.42 7.17 26.896 23.47 13.494 43.153 32.822 56.903 55.891 14.16 23.738 21.64 50.922 21.64 78.617 0 27.457-7.359 54.44-21.292 78.036-13.528 22.917-32.918 42.206-56.068 55.788-9.488 5.556-12.589 17.626-6.933 26.95s17.93 12.38 27.412 6.813c28.972-16.985 53.237-41.13 70.167-69.81 17.466-29.582 26.699-63.393 26.699-97.776 0-34.682-9.383-68.743-27.13-98.51-17.211-28.869-41.836-53.053-71.217-69.945-3.173-1.817-6.645-2.686-10.073-2.686zM568.568 9.143c-36.186 0-72.162 24.166-77.249 27.711l-38.497 26.406c-9.052 6.209-11.274 18.464-4.96 27.375 6.32 8.906 18.777 11.086 27.838 4.877l38.718-26.559c10.145-7.046 43.601-25.743 63.151-19.198 7.044 2.355 13.707 4.583 14.513 40.87v713.821c-2.068 34.095-9.476 37.394-18.035 41.205-18.267 8.139-49.295-11.107-58.722-18.496l-0.514-0.397-238.389-175.491c-53.625-42.919-126.689-41.125-134.927-40.765-50.766-0.228-93.726-37.851-100.124-87.74l-1.382-13.516v-123.047l1.382-13.527c6.415-49.998 49.55-87.685 100.461-87.74 0.702 0.011 1.404 0.011 2.1 0.011 69.040 0 126.805-37.243 129.255-38.841 3.721-2.447 90.070-60.116 135.269-156.327 4.633-9.857 0.261-21.54-9.769-26.092-10.018-4.55-21.9-0.256-26.533 9.602-39.88 84.912-118.507 138.329-121.122 140.080-1.885 1.207-52.303 32.904-108.841 32.252l-0.238-0.006c-71.179 0-131.493 52.634-140.284 122.433l-0.061 0.457-1.609 15.718v127l1.664 16.175c8.797 69.793 69.111 122.427 140.29 122.427l1.111-0.032c0.597-0.028 64.887-2.838 108.372 32.181l0.685 0.522 238.511 175.588c2.222 1.712 14.529 10.978 30.823 18.425 25.909 11.847 49.799 13.559 69.094 4.959 9.791-4.361 19.96-10.119 27.939-22.58 7.861-12.276 12.162-29.027 13.551-52.738l0.033-1.125v-714.822l-0.006-0.207c-0.673-30.968-4.505-65.052-41.621-77.464-7.132-2.387-14.508-3.386-21.878-3.386z" />
<glyph unicode="&#xe910;" d="M1024 448c0-282.77-229.23-512-512-512s-512 229.23-512 512c0 282.77 229.23 512 512 512s512-229.23 512-512z" />
<glyph unicode="&#xe911;" d="M389.12 448.329v81.591h50.002v49.343c0 66.554 19.883 114.497 92.752 114.497h86.665v-81.396h-61.007c-30.581 0-37.518-20.309-37.518-41.588v-40.856h94.033l-12.834-81.591h-81.199v-246.089h-80.891v246.089h-50.002z" />
<glyph unicode="&#xe912;" glyph-name="arrow-leftStrong" d="M230.837 495.456c148.168 143.249 296.33 286.487 444.487 429.586 61.007 59.036 151.959-36.829 90.667-96.009-131.855-127.496-263.711-254.853-395.495-382.353 132.487-131.85 264.973-263.85 397.533-395.705 60.305-60.024-30.644-155.89-90.735-95.937-148.87 148.089-297.658 296.25-446.457 444.413-24.597 24.597-25.233 71.692 0 96.005v0z" />
<glyph unicode="&#xe913;" glyph-name="箭头-左" d="M257.243 656.944c-13.846 0-25.071-11.225-25.071-25.071s11.225-25.071 25.071-25.071c13.845 0 25.071 11.225 25.071 25.071s-11.225 25.071-25.071 25.071zM257.243 609.309c-12.442 0-22.563 10.122-22.563 22.564s10.12 22.564 22.563 22.564 22.563-10.12 22.563-22.564c0-12.442-10.12-22.564-22.563-22.564zM255.843 650.578h2.802v-20.205h-2.802v20.205zM255.942 633.274h20.203v-2.802h-20.203v2.802zM239.46 497.25c138.894 126.885 277.719 253.77 416.592 380.522 57.188 52.248 142.428-32.586 85.012-85.016-123.578-112.878-247.154-225.717-370.732-338.6 124.212-116.781 248.379-233.697 372.612-350.519 56.577-53.156-28.663-138.080-85.059-84.967-139.482 131.19-278.943 262.38-418.426 393.57-23.065 21.796-23.655 63.487 0 85.011z" />
<glyph unicode="&#xe914;" glyph-name="arrow-left" d="M277.382 406.978c-23.136 22.633-23.113 59.378 0.024 82.035l383.961 421.98c23.16 22.657 60.65 22.68 83.786 0.048 23.112-22.657 23.088-59.378-0.048-82.058l-347.407-381.779 346.713-381.035c23.16-22.681 23.401-59.186 0.576-81.555s-60.122-22.104-83.258 0.553l-383.052 420.97c-0.382 0.361-0.91 0.457-1.294 0.84z" />
<glyph unicode="&#xe915;" glyph-name="Arrow-right" d="M288.791 894.417l446.417-446.417-446.417-446.417z" />
<glyph unicode="&#xe916;" glyph-name="Arrow-left1" d="M735.209 894.417l-446.417-446.417 446.417-446.417z" />
<glyph unicode="&#xe917;" glyph-name="close" d="M155.252 16.175c-19.213 0-38.429 7.332-53.089 21.988-29.317 29.321-29.317 76.855 0 106.175l713.494 713.494c29.317 29.321 76.853 29.321 106.175 0 29.317-29.317 29.317-76.855 0-106.175l-713.494-713.494c-14.66-14.66-33.874-21.988-53.089-21.988zM868.749 16.176c-19.213 0-38.428 7.332-53.089 21.988l-713.494 713.493c-29.317 29.317-29.317 76.857 0 106.175 29.316 29.317 76.855 29.321 106.174 0l713.494-713.492c29.317-29.321 29.317-76.855 0-106.175-14.657-14.661-33.871-21.993-53.087-21.993z" />
</font>
</defs>
</svg>
